Coordinates
version=1
nRows=17
nColumns=38
inDegrees=yes

Units are S.I. units (second, meters, Newtons, ...)
Angles are in degrees.

endheader
time	pelvis_tilt	pelvis_list	pelvis_rotation	pelvis_tx	pelvis_ty	pelvis_tz	hip_flexion_r	hip_adduction_r	hip_rotation_r	knee_angle_r	ankle_angle_r	subtalar_angle_r	mtp_angle_r	hip_flexion_l	hip_adduction_l	hip_rotation_l	knee_angle_l	ankle_angle_l	subtalar_angle_l	mtp_angle_l	lumbar_extension	lumbar_bending	lumbar_rotation	arm_flex_r	arm_add_r	arm_rot_r	elbow_flex_r	pro_sup_r	wrist_flex_r	wrist_dev_r	arm_flex_l	arm_add_l	arm_rot_l	elbow_flex_l	pro_sup_l	wrist_flex_l	wrist_dev_l
      0.00000000	      2.70637969	     -8.88205353	     85.94742691	     -0.24215293	      1.12933833	     -0.55512345	    -17.49479274	      4.20755404	      9.51027385	    -26.05253328	    -15.61375397	      0.00000000	      0.00000000	     28.83643720	     -3.98142837	      6.39163243	     -9.71545704	      0.62757828	      0.00000000	      0.00000000	    -10.41267887	     -2.22492154	     22.50966397	      0.00000000	      0.00000000	      0.00000000	     90.00000000	     90.00000000	      0.00000000	      0.00000000	      0.00000000	      0.00000000	      0.00000000	     90.00000000	     90.00000000	      0.00000000	      0.00000000
      0.00500000	      2.96231241	     -8.85675146	     86.21731302	     -0.24209772	      1.12798895	     -0.55542347	    -17.08955272	      4.53121719	      9.07001826	    -28.66791046	    -15.25817591	      0.00000000	      0.00000000	     28.74491443	     -4.17265298	      6.43647858	     -8.52917049	      0.82220938	      0.00000000	      0.00000000	    -10.44125286	     -2.05254817	     21.93154380	      0.00000000	      0.00000000	      0.00000000	     90.00000000	     90.00000000	      0.00000000	      0.00000000	      0.00000000	      0.00000000	      0.00000000	     90.00000000	     90.00000000	      0.00000000	      0.00000000
      0.01000000	      3.15252951	     -8.79042808	     86.38160530	     -0.24202555	      1.12655239	     -0.55568942	    -16.64879486	      4.77065077	      8.72982784	    -31.42272178	    -14.97275759	      0.00000000	      0.00000000	     28.61007064	     -4.32257284	      6.25791377	     -7.53448192	      1.03250700	      0.00000000	      0.00000000	    -10.52393891	     -1.96065487	     21.47602197	      0.00000000	      0.00000000	      0.00000000	     90.00000000	     90.00000000	      0.00000000	      0.00000000	      0.00000000	      0.00000000	      0.00000000	     90.00000000	     90.00000000	      0.00000000	      0.00000000
      0.01500000	      3.27659357	     -8.69126806	     86.45117587	     -0.24194416	      1.12499975	     -0.55591540	    -16.16704578	      4.92655898	      8.47741278	    -34.30952769	    -14.74462426	      0.00000000	      0.00000000	     28.44130440	     -4.42429057	      5.88339435	     -6.72808209	      1.24845682	      0.00000000	      0.00000000	    -10.65029347	     -1.94941560	     21.12768038	      0.00000000	      0.00000000	      0.00000000	     90.00000000	     90.00000000	      0.00000000	      0.00000000	      0.00000000	      0.00000000	      0.00000000	     90.00000000	     90.00000000	      0.00000000	      0.00000000
      0.02000000	      3.33412997	     -8.56984322	     86.43981641	     -0.24186050	      1.12329550	     -0.55609060	    -15.63731382	      4.99971530	      8.29684288	    -37.31753379	    -14.55676520	      0.00000000	      0.00000000	     28.25084051	     -4.46926244	      5.35017923	     -6.10538083	      1.45615549	      0.00000000	      0.00000000	    -10.80683076	     -2.01856823	     20.86611399	      0.00000000	      0.00000000	      0.00000000	     90.00000000	     90.00000000	      0.00000000	      0.00000000	      0.00000000	      0.00000000	      0.00000000	     90.00000000	     90.00000000	      0.00000000	      0.00000000
      0.02500000	      3.32492090	     -8.43778289	     86.36257839	     -0.24177909	      1.12140455	     -0.55619849	    -15.05208459	      4.99076985	      8.17033272	    -40.43304069	    -14.38990141	      0.00000000	      0.00000000	     28.05254830	     -4.44871840	      4.70194367	     -5.66110497	      1.63894242	      0.00000000	      0.00000000	    -10.97868095	     -2.16705363	     20.66794962	      0.00000000	      0.00000000	      0.00000000	     90.00000000	     90.00000000	      0.00000000	      0.00000000	      0.00000000	      0.00000000	      0.00000000	     90.00000000	     90.00000000	      0.00000000	      0.00000000
      0.03000000	      3.24887353	     -8.30652106	     86.23461849	     -0.24170298	      1.11929947	     -0.55621746	    -14.40433537	      4.90013904	      8.07975043	    -43.64004288	    -14.22430789	      0.00000000	      0.00000000	     27.86112118	     -4.35501032	      3.98521868	     -5.39026827	      1.77880823	      0.00000000	      0.00000000	    -11.15111482	     -2.39271806	     20.50863945	      0.00000000	      0.00000000	      0.00000000	     90.00000000	     90.00000000	      0.00000000	      0.00000000	      0.00000000	      0.00000000	      0.00000000	     90.00000000	     90.00000000	      0.00000000	      0.00000000
      0.03500000	      3.10593517	     -8.18618842	     86.07058515	     -0.24163779	      1.11696512	     -0.55612456	    -13.68851376	      4.72806718	      8.00781965	    -46.92098463	    -14.04153574	      0.00000000	      0.00000000	     27.69155670	     -4.18273062	      3.24569750	     -5.28955255	      1.85817618	      0.00000000	      0.00000000	    -11.31089947	     -2.69211638	     20.36400236	      0.00000000	      0.00000000	      0.00000000	     90.00000000	     90.00000000	      0.00000000	      0.00000000	      0.00000000	      0.00000000	      0.00000000	     90.00000000	     90.00000000	      0.00000000	      0.00000000
      0.04000000	      2.89612953	     -8.08477406	     85.88441554	     -0.24159702	      1.11439796	     -0.55590245	    -12.90137071	      4.47491586	      7.93901358	    -50.25760553	    -13.82595264	      0.00000000	      0.00000000	     27.55876365	     -3.92935877	      2.52462809	     -5.35899640	      1.86208391	      0.00000000	      0.00000000	    -11.44745112	     -3.06045397	     20.21149551	      0.00000000	      0.00000000	      0.00000000	     90.00000000	     90.00000000	      0.00000000	      0.00000000	      0.00000000	      0.00000000	      0.00000000	     90.00000000	     90.00000000	      0.00000000	      0.00000000
      0.04500000	      2.61991521	     -8.00768748	     85.68929770	     -0.24160467	      1.11159906	     -0.55554722	    -12.04252779	      4.14165345	      7.86016960	    -53.63174877	    -13.56599718	      0.00000000	      0.00000000	     27.47710178	     -3.59521402	      1.85565921	     -5.60370503	      1.78068604	      0.00000000	      0.00000000	    -11.55375158	     -3.49169110	     20.03121102	      0.00000000	      0.00000000	      0.00000000	     90.00000000	     90.00000000	      0.00000000	      0.00000000	      0.00000000	      0.00000000	      0.00000000	     90.00000000	     90.00000000	      0.00000000	      0.00000000
      0.05000000	      2.27890682	     -7.95775008	     85.49755840	     -0.24169198	      1.10856347	     -0.55507357	    -11.11470372	      3.73044536	      7.76087975	    -57.02599513	    -13.25503620	      0.00000000	      0.00000000	     27.45977389	     -3.18269766	      1.26255161	     -6.03512011	      1.61186662	      0.00000000	      0.00000000	    -11.62699111	     -3.97880610	     19.80660417	      0.00000000	      0.00000000	      0.00000000	     90.00000000	     90.00000000	      0.00000000	      0.00000000	      0.00000000	      0.00000000	      0.00000000	     90.00000000	     90.00000000	      0.00000000	      0.00000000
      0.05500000	      1.87670364	     -7.93547986	     85.32038384	     -0.24188884	      1.10527109	     -0.55451320	    -10.12359249	      3.24519116	      7.63373266	    -60.42402536	    -12.89173462	      0.00000000	      0.00000000	     27.51815402	     -2.69515750	      0.75807933	     -6.67130638	      1.36361772	      0.00000000	      0.00000000	    -11.66889074	     -4.51418162	     19.52496875	      0.00000000	      0.00000000	      0.00000000	     90.00000000	     90.00000000	      0.00000000	      0.00000000	      0.00000000	      0.00000000	      0.00000000	     90.00000000	     90.00000000	      0.00000000	      0.00000000
      0.06000000	      1.41937133	     -7.93942037	     85.16745223	     -0.24221465	      1.10168493	     -0.55390432	     -9.07745368	      2.69183392	      7.47447646	    -63.81069477	    -12.47988976	      0.00000000	      0.00000000	     27.66124418	     -2.13596373	      0.34426162	     -7.53578714	      1.05573375	      0.00000000	      0.00000000	    -11.68565178	     -5.09005006	     19.17768099	      0.00000000	      0.00000000	      0.00000000	     90.00000000	     90.00000000	      0.00000000	      0.00000000	      0.00000000	      0.00000000	      0.00000000	     90.00000000	     90.00000000	      0.00000000	      0.00000000
      0.06500000	      0.91522147	     -7.96628140	     85.04661555	     -0.24267257	      1.09776198	     -0.55327378	     -7.98652216	      2.07831073	      7.28213240	    -67.17189770	    -12.02773396	      0.00000000	      0.00000000	     27.89544706	     -1.50831247	      0.01384211	     -8.65469797	      0.72032086	      0.00000000	      0.00000000	    -11.68748877	     -5.69891616	     18.76023433	      0.00000000	      0.00000000	      0.00000000	     90.00000000	     90.00000000	      0.00000000	      0.00000000	      0.00000000	      0.00000000	      0.00000000	     90.00000000	     90.00000000	      0.00000000	      0.00000000
      0.07000000	      0.37387440	     -8.01081655	     84.96370873	     -0.24324820	      1.09347863	     -0.55261912	     -6.86232218	      1.41411265	      7.05903378	    -70.49437710	    -11.54676946	      0.00000000	      0.00000000	     28.22467137	     -0.81591135	     -0.24727241	    -10.05240862	      0.40066011	      0.00000000	      0.00000000	    -11.68773342	     -6.33387616	     18.27208626	      0.00000000	      0.00000000	      0.00000000	     90.00000000	     90.00000000	      0.00000000	      0.00000000	      0.00000000	      0.00000000	      0.00000000	     90.00000000	     90.00000000	      0.00000000	      0.00000000
      0.07500000	     -0.19507518	     -8.06559005	     84.92244060	     -0.24391207	      1.08886484	     -0.55190201	     -5.71687192	      0.70957558	      6.81070686	    -73.76566627	    -11.05026868	      0.00000000	      0.00000000	     28.65048300	     -0.06426760	     -0.45704856	    -11.74621064	      0.14812247	      0.00000000	      0.00000000	    -11.70154571	     -6.98877710	     17.71633452	      0.00000000	      0.00000000	      0.00000000	     90.00000000	     90.00000000	      0.00000000	      0.00000000	      0.00000000	      0.00000000	      0.00000000	     90.00000000	     90.00000000	      0.00000000	      0.00000000
      0.08000000	     -0.78328484	     -8.12099318	     84.92422414	     -0.24462602	      1.08402898	     -0.55106131	     -4.56170665	     -0.02484573	      6.54549396	    -76.97429508	    -10.55162952	      0.00000000	      0.00000000	     29.17177820	      0.73802220	     -0.63434186	    -13.74100554	      0.01715915	      0.00000000	      0.00000000	    -11.74432815	     -7.65820001	     17.09923678	      0.00000000	      0.00000000	      0.00000000	     90.00000000	     90.00000000	      0.00000000	      0.00000000	      0.00000000	      0.00000000	      0.00000000	     90.00000000	     90.00000000	      0.00000000	      0.00000000
